<?xml version="1.0" encoding="UTF-8"?>
<svg id="Layer_1" data-name="Layer 1" xmlns="http://www.w3.org/2000/svg" viewBox="0 0 1800 1800">
  <defs>
    <style>
      .cls-1 {
        fill: #fff;
        fill-rule: evenodd;
      }
    </style>
  </defs>
  <path class="cls-1" d="M900,200c-386.6,0-700,313.4-700,700s313.4,700,700,700,700-313.4,700-700c0-55.23,44.77-100,100-100s100,44.77,100,100c0,497.06-402.94,900-900,900S0,1397.06,0,900,402.94,0,900,0c207.15,0,397.95,70.03,550,187.57v-87.57c0-55.23,44.77-100,100-100s100,44.77,100,100v333.53c0,55.23-44.77,100-100,100h-319.5c-55.23,0-100-44.77-100-100s44.77-100,100-100h80.84c-115.51-84.04-257.65-133.53-411.34-133.53Z"/>
</svg>